<svg width="16" height="16" viewBox="0 0 16 16" fill="none" xmlns="http://www.w3.org/2000/svg">
<path d="M12 9C12 11.8 9.3775 14 6.25 14C5.76631 14.0041 5.28383 13.9512 4.8125 13.8425L2 15.25V12.3675C-0.75 9.73 0.455 5.5375 4.25 4.3125C7.97 3.105 12 5.5 12 9Z" fill="black"/>
<path d="M14 9.1175V12L11.61 10.805C13.405 6.8225 8.8975 2.805 4.2425 4.305C4.9525 2.25 7.15 0.75 9.75 0.75C14.75 0.75 17.335 5.9275 14 9.1175Z" fill="black"/>
<path d="M9.75 0.25C7.07 0.25 4.75 1.715 3.86 3.92C-2.14577e-06 5.3275 -1.295 9.6975 1.5 12.575V15.25C1.5 15.3826 1.55268 15.5098 1.64644 15.6036C1.74021 15.6973 1.86739 15.75 2 15.75C2.165 15.75 2 15.81 4.88 14.3675C7.6075 14.9025 10.5 13.8025 11.83 11.4725C13.925 12.5225 13.835 12.5 14 12.5C14.1326 12.5 14.2598 12.4473 14.3536 12.3536C14.4473 12.2598 14.5 12.1326 14.5 12V9.325C17.925 5.7975 15.1275 0.25 9.75 0.25ZM6.25 13.5C4.0375 13.5 5.835 12.7725 2.5 14.44C2.5 12.24 2.5525 12.205 2.345 12.005C-0.690002 9.1025 1.75 4.5 6.25 4.5C9.97 4.5 12.455 7.715 11.1525 10.6025C10.3825 12.335 8.4125 13.5 6.25 13.5ZM13.655 8.75C13.4475 8.95 13.5 8.955 13.5 11.185C12.1125 10.4925 12.25 10.565 12.25 10.535C13.555 6.63 9.71 2.875 5.15 3.585C6.06 2.175 7.82 1.25 9.75 1.25C14.305 1.25 16.665 5.8775 13.655 8.75Z" fill="white"/>
<path d="M3 9.75C3.41421 9.75 3.75 9.41421 3.75 9C3.75 8.58579 3.41421 8.25 3 8.25C2.58579 8.25 2.25 8.58579 2.25 9C2.25 9.41421 2.58579 9.75 3 9.75Z" fill="#E8F3FF"/>
<path d="M6.25 9.75C6.66421 9.75 7 9.41421 7 9C7 8.58579 6.66421 8.25 6.25 8.25C5.83579 8.25 5.5 8.58579 5.5 9C5.5 9.41421 5.83579 9.75 6.25 9.75Z" fill="#E8F3FF"/>
<path d="M9.5 9.75C9.91421 9.75 10.25 9.41421 10.25 9C10.25 8.58579 9.91421 8.25 9.5 8.25C9.08579 8.25 8.75 8.58579 8.75 9C8.75 9.41421 9.08579 9.75 9.5 9.75Z" fill="#E8F3FF"/>
</svg>
