<svg width="15" height="15" viewBox="0 0 15 15" fill="none" xmlns="http://www.w3.org/2000/svg">
<path d="M7.5 14.5312C11.3833 14.5312 14.5312 11.3833 14.5312 7.5C14.5312 3.61675 11.3833 0.46875 7.5 0.46875C3.61675 0.46875 0.46875 3.61675 0.46875 7.5C0.46875 11.3833 3.61675 14.5312 7.5 14.5312Z" fill="#E8F3FF"/>
<path d="M7.49999 15C6.01663 15 4.56658 14.5601 3.33321 13.736C2.09984 12.9119 1.13855 11.7406 0.570892 10.3701C0.00323435 8.99968 -0.145291 7.49168 0.144099 6.03683C0.433488 4.58197 1.14779 3.2456 2.19669 2.1967C3.24558 1.14781 4.58195 0.433503 6.03681 0.144114C7.49167 -0.145275 8.99967 0.00324961 10.3701 0.570907C11.7406 1.13856 12.9119 2.09986 13.736 3.33323C14.5601 4.5666 15 6.01664 15 7.5C15 9.48913 14.2098 11.3968 12.8033 12.8033C11.3968 14.2098 9.48911 15 7.49999 15ZM7.49999 0.937503C6.20205 0.937503 4.93326 1.32239 3.85406 2.04348C2.77486 2.76458 1.93373 3.7895 1.43703 4.98864C0.940329 6.18778 0.810369 7.50728 1.06358 8.78028C1.3168 10.0533 1.94182 11.2226 2.8596 12.1404C3.77738 13.0582 4.94671 13.6832 6.21971 13.9364C7.49271 14.1896 8.81221 14.0597 10.0113 13.563C11.2105 13.0663 12.2354 12.2251 12.9565 11.1459C13.6776 10.0667 14.0625 8.79794 14.0625 7.5C14.0625 5.75952 13.3711 4.09032 12.1404 2.85962C10.9097 1.62891 9.24047 0.937503 7.49999 0.937503Z" fill="#2E58FF"/>
<path d="M4.92187 6.79689L6.23203 8.10705C6.31986 8.19435 6.43866 8.24336 6.5625 8.24336C6.68634 8.24336 6.80514 8.19435 6.89297 8.10705L10.0781 4.92189C10.2646 4.73541 10.5175 4.63065 10.7812 4.63065C11.045 4.63065 11.2979 4.73541 11.4844 4.92189C11.6709 5.10837 11.7756 5.36129 11.7756 5.62501C11.7756 5.88874 11.6709 6.14166 11.4844 6.32814L7.55625 10.2563C7.29258 10.5196 6.93516 10.6675 6.5625 10.6675C6.18984 10.6675 5.83242 10.5196 5.56875 10.2563L3.51562 8.20314C3.32914 8.01666 3.22438 7.76374 3.22438 7.50001C3.22438 7.36943 3.2501 7.24013 3.30007 7.11949C3.35004 6.99884 3.42329 6.88923 3.51562 6.79689C3.60796 6.70455 3.71758 6.63131 3.83822 6.58134C3.95886 6.53137 4.08817 6.50565 4.21875 6.50565C4.48247 6.50565 4.73539 6.61041 4.92187 6.79689Z" fill="#A2D0FF"/>
<path d="M5.23594 10.5867L3.18515 8.5336C2.98084 8.32907 2.84173 8.06858 2.78539 7.78502C2.72905 7.50147 2.75801 7.20758 2.86861 6.94048C2.97921 6.67338 3.1665 6.44505 3.4068 6.28433C3.64711 6.12362 3.92965 6.03772 4.21875 6.03751C4.41089 6.03675 4.60125 6.07429 4.77872 6.14793C4.95618 6.22157 5.11719 6.32984 5.25234 6.46641L6.5625 7.77423L9.74765 4.59141C10.0247 4.33188 10.3918 4.19023 10.7714 4.19642C11.1509 4.20261 11.5132 4.35615 11.7817 4.62458C12.0501 4.89302 12.2036 5.25531 12.2098 5.63488C12.216 6.01445 12.0744 6.38156 11.8148 6.6586L7.88906 10.5867C7.71492 10.7611 7.50813 10.8994 7.28051 10.9937C7.05289 11.0881 6.8089 11.1366 6.5625 11.1366C6.31609 11.1366 6.07211 11.0881 5.84449 10.9937C5.61686 10.8994 5.41007 10.7611 5.23594 10.5867ZM4.21875 6.97501C4.115 6.97556 4.01371 7.0067 3.92757 7.06453C3.84143 7.12237 3.77427 7.20433 3.73449 7.30015C3.69471 7.39598 3.68408 7.50141 3.70393 7.60324C3.72378 7.70508 3.77323 7.7988 3.84609 7.87266L5.89922 9.92345C5.98629 10.0106 6.08968 10.0798 6.20349 10.1269C6.3173 10.1741 6.4393 10.1984 6.5625 10.1984C6.6857 10.1984 6.80769 10.1741 6.9215 10.1269C7.03532 10.0798 7.13871 10.0106 7.22578 9.92345L11.1539 5.99766C11.2057 5.94939 11.2473 5.89117 11.2761 5.82648C11.3049 5.76179 11.3204 5.69196 11.3217 5.62116C11.3229 5.55035 11.3099 5.48002 11.2834 5.41435C11.2568 5.34869 11.2174 5.28904 11.1673 5.23896C11.1172 5.18889 11.0576 5.14941 10.9919 5.12289C10.9262 5.09637 10.8559 5.08334 10.7851 5.08459C10.7143 5.08584 10.6445 5.10134 10.5798 5.13016C10.5151 5.15898 10.4569 5.20054 10.4086 5.25235L7.22578 8.43751C7.04704 8.60801 6.80951 8.70313 6.5625 8.70313C6.31548 8.70313 6.07795 8.60801 5.89922 8.43751C4.48594 7.03126 4.51172 6.97501 4.21875 6.97501Z" fill="#2E58FF"/>
</svg>
