<svg width="13" height="13" viewBox="0 0 13 13" fill="none" xmlns="http://www.w3.org/2000/svg">
<g clip-path="url(#clip0_82_2712)">
<path d="M11.2402 5.59475L10.2782 2.33118C10.1364 1.85203 9.68909 1.52031 9.18999 1.52468L4.13781 1.56896C3.93044 1.57078 3.76429 1.74024 3.76611 1.94723L3.81211 7.19703C3.81282 7.27765 3.83939 7.35617 3.88832 7.42024L5.93404 10.1174C6.16074 10.3963 6.48534 10.5487 6.83183 10.5457C7.45768 10.5402 7.96207 10.0269 7.95659 9.40104L7.94024 7.53587L9.81592 7.51943C10.2903 7.51527 10.7241 7.29434 11.0062 6.9131C11.2893 6.5311 11.3744 6.05072 11.2402 5.59475Z" fill="#F0434D"/>
<path d="M2.69045 7.58196L1.19051 7.5951C0.98314 7.59692 0.814049 7.4304 0.812235 7.2234L0.766228 1.9736C0.764415 1.76661 0.930561 1.59715 1.13793 1.59533L2.63787 1.58219C2.84524 1.58037 3.01433 1.7469 3.01614 1.95389L3.06215 7.20369C3.06396 7.41068 2.89782 7.58014 2.69045 7.58196ZM1.89611 2.52622C1.58563 2.52895 1.33584 2.78314 1.33857 3.09363C1.34129 3.40412 1.59549 3.6539 1.90597 3.65118C2.21646 3.64846 2.46624 3.39426 2.46352 3.08377C2.4608 2.77329 2.2066 2.5235 1.89611 2.52622Z" fill="#F0434D"/>
</g>
<defs>
<clipPath id="clip0_82_2712">
<rect width="12" height="12" fill="white" transform="matrix(0.999962 -0.00876316 -0.00876316 -0.999962 0.10498 12.1047)"/>
</clipPath>
</defs>
</svg>
