<svg width="15" height="15" viewBox="0 0 15 15" fill="none" xmlns="http://www.w3.org/2000/svg">
<g clip-path="url(#clip0_82_2302)">
<path d="M14.5313 4.92188C14.5319 5.83353 14.1849 6.71113 13.5609 7.37578L7.5 13.8281L1.43906 7.36407C0.817844 6.70237 0.471036 5.82948 0.46875 4.92188C0.46875 1.82813 4.06406 0.234378 6.51562 2.07422L7.5 2.8125L8.48438 2.07422C10.9453 0.234378 14.5313 1.83516 14.5313 4.92188Z" fill="#8BC4FF"/>
<path d="M7.5 14.2969C7.20703 14.2969 7.70391 14.7328 1.09687 7.68517C0.394168 6.93643 0.00210166 5.94873 0 4.92189C0 1.43673 4.04063 -0.365613 6.79688 1.69923L7.5 2.22657L8.20312 1.69923C10.9617 -0.365613 15 1.43907 15 4.92189C15.0002 5.95264 14.608 6.94481 13.9031 7.69689C7.3125 14.7141 7.79063 14.2969 7.5 14.2969ZM4.17891 1.76486C3.65928 1.75077 3.14423 1.8654 2.67962 2.09854C2.21502 2.33168 1.81528 2.6761 1.516 3.10112C1.21672 3.52614 1.02719 4.01858 0.964285 4.53458C0.901383 5.05058 0.96706 5.57413 1.15547 6.05861C1.45781 6.81798 1.35937 6.59298 7.5 13.1438C13.8609 6.36095 13.5469 6.79689 13.8445 6.05626C14.0274 5.59359 14.0968 5.09388 14.0471 4.59888C13.9973 4.10389 13.8298 3.62798 13.5586 3.21095C12.5297 1.64064 10.2984 1.30079 8.76562 2.44923L7.78125 3.18751C7.06172 3.72657 6.40547 1.76486 4.17891 1.76486Z" fill="#2E58FF"/>
</g>
<defs>
<clipPath id="clip0_82_2302">
<rect width="15" height="15" fill="white"/>
</clipPath>
</defs>
</svg>
