<svg width="15" height="15" viewBox="0 0 15 15" fill="none" xmlns="http://www.w3.org/2000/svg">
<g clip-path="url(#clip0_82_2308)">
<path d="M11.25 8.4375C11.25 11.0625 8.7914 13.125 5.85937 13.125C5.40592 13.1288 4.95358 13.0793 4.51172 12.9773L1.875 14.2969V11.5945C-0.703127 9.12187 0.426561 5.1914 3.98437 4.04297C7.47187 2.91094 11.25 5.15625 11.25 8.4375Z" fill="#8BC4FF"/>
<path d="M13.125 8.54766V11.25L10.8844 10.1297C12.5672 6.39609 8.3414 2.62969 3.97734 4.03594C4.64297 2.10937 6.70312 0.703125 9.14062 0.703125C13.8281 0.703125 16.2516 5.55703 13.125 8.54766Z" fill="#D1E7FF"/>
<path d="M9.14062 0.234375C6.62812 0.234375 4.45312 1.60781 3.61875 3.675C-1.05798e-06 4.99453 -1.21406 9.09141 1.40625 11.7891V14.2969C1.40625 14.4212 1.45563 14.5404 1.54354 14.6283C1.63145 14.7162 1.75068 14.7656 1.875 14.7656C2.02969 14.7656 1.875 14.8219 4.575 13.4695C7.13203 13.9711 9.84375 12.9398 11.0906 10.7555C13.0547 11.7398 12.9703 11.7188 13.125 11.7188C13.2493 11.7188 13.3685 11.6694 13.4565 11.5815C13.5444 11.4935 13.5937 11.3743 13.5937 11.25V8.74219C16.8047 5.43516 14.182 0.234375 9.14062 0.234375ZM5.85937 12.6562C3.78516 12.6562 5.47031 11.9742 2.34375 13.5375C2.34375 11.475 2.39297 11.4422 2.19844 11.2547C-0.646876 8.53359 1.64062 4.21875 5.85937 4.21875C9.34687 4.21875 11.6766 7.23281 10.4555 9.93984C9.73359 11.5641 7.88672 12.6562 5.85937 12.6562ZM12.8016 8.20312C12.607 8.39062 12.6562 8.39531 12.6562 10.4859C11.3555 9.83672 11.4844 9.90469 11.4844 9.87656C12.7078 6.21562 9.10312 2.69531 4.82812 3.36094C5.68125 2.03906 7.33125 1.17188 9.14062 1.17188C13.4109 1.17188 15.6234 5.51016 12.8016 8.20312Z" fill="#2E58FF"/>
<path d="M2.8125 9.14062C3.20083 9.14062 3.51562 8.82583 3.51562 8.4375C3.51562 8.04917 3.20083 7.73438 2.8125 7.73438C2.42417 7.73438 2.10938 8.04917 2.10938 8.4375C2.10938 8.82583 2.42417 9.14062 2.8125 9.14062Z" fill="#E8F3FF"/>
<path d="M5.85938 9.14062C6.2477 9.14062 6.5625 8.82583 6.5625 8.4375C6.5625 8.04917 6.2477 7.73438 5.85938 7.73438C5.47105 7.73438 5.15625 8.04917 5.15625 8.4375C5.15625 8.82583 5.47105 9.14062 5.85938 9.14062Z" fill="#E8F3FF"/>
<path d="M8.90625 9.14062C9.29458 9.14062 9.60938 8.82583 9.60938 8.4375C9.60938 8.04917 9.29458 7.73438 8.90625 7.73438C8.51792 7.73438 8.20312 8.04917 8.20312 8.4375C8.20312 8.82583 8.51792 9.14062 8.90625 9.14062Z" fill="#E8F3FF"/>
</g>
<defs>
<clipPath id="clip0_82_2308">
<rect width="15" height="15" fill="white"/>
</clipPath>
</defs>
</svg>
