<svg width="61" height="60" viewBox="0 0 61 60" fill="none" xmlns="http://www.w3.org/2000/svg">
<g clip-path="url(#clip0_702_12)">
<rect x="0.5" width="60" height="60" rx="30" fill="#F0434D"/>
<path fill-rule="evenodd" clip-rule="evenodd" d="M48.4704 37.3744V25.6432C49.6767 24.5617 49.3441 23.1889 47.3471 22.2737L33.8687 15.9504C32.6625 15.368 31.0401 15.1185 29.4592 15.1185C27.8783 15.1185 26.2559 15.4098 25.0497 15.9504L11.5297 22.2319C9.11687 23.3552 9.07535 25.2271 11.5297 26.3504L15.981 28.4304V37.9568L16.0225 38.3311C16.1888 38.872 17.8112 43.5311 29.4177 43.5311C41.0241 43.5311 42.6881 38.872 42.8129 38.3311L42.8962 28.4303L45.6 27.1823V37.4159C44.9762 38.2478 43.7696 40.0367 43.7696 42.1583C43.7696 45.0287 45.8911 47.275 45.9744 47.3998C46.2239 47.6911 46.5983 47.8574 47.0144 47.8574C47.3887 47.8574 47.763 47.6911 48.0544 47.3998C48.1377 47.3165 50.2592 45.0703 50.2592 42.1583C50.301 39.9535 49.0944 38.1645 48.4705 37.3741L48.4704 37.3744ZM40.0672 37.6657C39.6929 38.2896 37.6544 40.7025 29.4592 40.7025C21.1392 40.7025 19.184 38.2063 18.8512 37.6657V29.7617L25.0497 32.6322C26.2559 33.2146 27.8783 33.4641 29.4592 33.4641C31.0401 33.4641 32.6625 33.1728 33.8687 32.6322L40.0672 29.7617V37.6657ZM32.6624 30.0945C31.8719 30.4689 30.6657 30.6769 29.4591 30.6769C28.2529 30.6769 27.0463 30.4689 26.2559 30.0945L13.8591 24.3121L26.2559 18.5297C27.0463 18.1554 28.2526 17.9474 29.4591 17.9474C30.6654 17.9474 31.8719 18.1554 32.6624 18.5297L45.0176 24.3121L32.6624 30.0945ZM47.056 43.8225C46.8479 43.3234 46.6399 42.741 46.6399 42.1587C46.6399 41.5764 46.8062 40.9939 47.056 40.4948C47.2641 40.9939 47.4721 41.5764 47.4721 42.1587C47.4303 42.7411 47.2638 43.3235 47.056 43.8225Z" fill="white"/>
</g>
<defs>
<clipPath id="clip0_702_12">
<rect x="0.5" width="60" height="60" rx="30" fill="white"/>
</clipPath>
</defs>
</svg>
