<svg width="60" height="60" viewBox="0 0 60 60" fill="none" xmlns="http://www.w3.org/2000/svg">
<rect width="60" height="60" rx="30" fill="#F0434D"/>
<path d="M43.895 26.52C43.66 25.816 43.066 25.311 42.346 25.201L35.037 24.106L31.747 17.122C31.42 16.43 30.751 16 30 16C29.249 16 28.58 16.43 28.253 17.122L25.011 24.081L17.654 25.201C16.934 25.311 16.341 25.816 16.105 26.52C15.864 27.243 16.042 28.027 16.57 28.566L21.891 34.012L20.634 41.688C20.509 42.455 20.819 43.206 21.445 43.647C22.047 44.074 22.821 44.116 23.465 43.761L29.954 40.137L36.535 43.761C37.181 44.116 37.953 44.072 38.555 43.647C39.181 43.206 39.492 42.455 39.366 41.688L38.107 34.002L43.43 28.566C43.958 28.027 44.136 27.243 43.895 26.52Z" fill="white"/>
</svg>
