<svg width="24" height="24" viewBox="0 0 24 24" fill="none" xmlns="http://www.w3.org/2000/svg">
<path d="M14.94 8.9775C16.6093 8.9775 17.9625 7.62428 17.9625 5.95499C17.9625 4.28571 16.6093 2.9325 14.94 2.9325C13.2707 2.9325 11.9175 4.28571 11.9175 5.95499C11.9175 7.62428 13.2707 8.9775 14.94 8.9775Z" stroke="#007BFF" stroke-width="2" stroke-linecap="round" stroke-linejoin="round"/>
<path d="M11.415 12H12.3225C12.1536 11.2833 11.7477 10.6445 11.1706 10.1871C10.5935 9.7298 9.87887 9.48063 9.1425 9.48H4.7775C3.90825 9.48 3.07461 9.8253 2.45996 10.44C1.84531 11.0546 1.5 11.8882 1.5 12.7575C1.5 13.6267 1.84531 14.4604 2.45996 15.075C3.07461 15.6897 3.90825 16.035 4.7775 16.035H7.38C7.38 14.9648 7.80512 13.9385 8.56182 13.1818C9.31853 12.4251 10.3449 12 11.415 12V12Z" stroke="#007BFF" stroke-width="2" stroke-linecap="round" stroke-linejoin="round"/>
<path d="M6.9601 7.2975C7.39388 7.29898 7.81832 7.17161 8.17961 6.93154C8.5409 6.69147 8.82276 6.34952 8.98945 5.94905C9.15613 5.54857 9.20013 5.10762 9.11587 4.6821C9.03161 4.25658 8.82288 3.86568 8.51615 3.55895C8.20942 3.25222 7.81852 3.04349 7.393 2.95923C6.96748 2.87497 6.52653 2.91897 6.12605 3.08565C5.72558 3.25234 5.38362 3.5342 5.14356 3.89549C4.90349 4.25678 4.77612 4.68122 4.7776 5.115C4.7776 5.69383 5.00754 6.24896 5.41684 6.65826C5.82614 7.06756 6.38127 7.2975 6.9601 7.2975V7.2975Z" stroke="#007BFF" stroke-width="2" stroke-linecap="round" stroke-linejoin="round"/>
<path d="M18.4649 12H11.4149C9.18641 12 7.37988 13.8065 7.37988 16.035V17.04C7.37988 19.2685 9.18641 21.075 11.4149 21.075H18.4649C20.6934 21.075 22.4999 19.2685 22.4999 17.04V16.035C22.4999 13.8065 20.6934 12 18.4649 12Z" stroke="#007BFF" stroke-width="2" stroke-linecap="round" stroke-linejoin="round"/>
</svg>
