<svg width="32" height="32" viewBox="0 0 32 32" fill="none" xmlns="http://www.w3.org/2000/svg">
<path d="M19.9199 11.97C22.1456 11.97 23.9499 10.1657 23.9499 7.94C23.9499 5.7143 22.1456 3.91 19.9199 3.91C17.6942 3.91 15.8899 5.7143 15.8899 7.94C15.8899 10.1657 17.6942 11.97 19.9199 11.97Z" stroke="#007BFF" stroke-width="2" stroke-linecap="round" stroke-linejoin="round"/>
<path d="M15.22 16H16.43C16.2048 15.0443 15.6637 14.1927 14.8941 13.5829C14.1246 12.9731 13.1718 12.6408 12.19 12.64H6.37C5.211 12.64 4.09948 13.1004 3.27994 13.9199C2.46041 14.7395 2 15.851 2 17.01C2 18.169 2.46041 19.2805 3.27994 20.1001C4.09948 20.9196 5.211 21.38 6.37 21.38H9.84C9.84 19.9531 10.4068 18.5847 11.4158 17.5758C12.4247 16.5668 13.7931 16 15.22 16V16Z" stroke="#007BFF" stroke-width="2" stroke-linecap="round" stroke-linejoin="round"/>
<path d="M9.27989 9.73C9.85826 9.73198 10.4242 9.56215 10.9059 9.24206C11.3876 8.92197 11.7634 8.46603 11.9857 7.93206C12.2079 7.3981 12.2666 6.81015 12.1543 6.2428C12.0419 5.67545 11.7636 5.15423 11.3546 4.74526C10.9457 4.33629 10.4244 4.05799 9.85709 3.94564C9.28973 3.83329 8.70179 3.89196 8.16783 4.1142C7.63386 4.33645 7.17792 4.71226 6.85783 5.19398C6.53774 5.6757 6.36791 6.24163 6.36989 6.82C6.36989 7.59178 6.67648 8.33195 7.22221 8.87768C7.76794 9.42341 8.50811 9.73 9.27989 9.73V9.73Z" stroke="#007BFF" stroke-width="2" stroke-linecap="round" stroke-linejoin="round"/>
<path d="M24.6201 16H15.2201C12.2488 16 9.84009 18.4087 9.84009 21.38V22.72C9.84009 25.6913 12.2488 28.1 15.2201 28.1H24.6201C27.5914 28.1 30.0001 25.6913 30.0001 22.72V21.38C30.0001 18.4087 27.5914 16 24.6201 16Z" stroke="#007BFF" stroke-width="2" stroke-linecap="round" stroke-linejoin="round"/>
</svg>
