<svg width="20" height="20" viewBox="0 0 20 20" fill="none" xmlns="http://www.w3.org/2000/svg">
<path d="M15.8205 7.93103H4.17963C2.7918 7.93103 1.66675 9.04875 1.66675 10.4275V16.469C1.66675 17.8478 2.7918 18.9655 4.17963 18.9655H15.8205C17.2084 18.9655 18.3334 17.8478 18.3334 16.469V10.4275C18.3334 9.04875 17.2084 7.93103 15.8205 7.93103Z" stroke="#007BFF" stroke-width="2" stroke-linecap="round" stroke-linejoin="round"/>
<path d="M9.99998 1.59483C11.2402 1.59483 12.4296 2.1045 13.3066 3.0117C14.1836 3.91891 14.6762 5.14935 14.6762 6.43233V8.04483H5.32373V6.43233C5.32373 5.14935 5.81641 3.91891 6.69337 3.0117C7.57034 2.1045 8.75976 1.59483 9.99998 1.59483Z" stroke="#007BFF" stroke-width="2" stroke-linecap="round" stroke-linejoin="round"/>
<path d="M10.0001 14.0323C10.9844 14.0323 11.7824 13.2069 11.7824 12.1886C11.7824 11.1703 10.9844 10.3448 10.0001 10.3448C9.01573 10.3448 8.21777 11.1703 8.21777 12.1886C8.21777 13.2069 9.01573 14.0323 10.0001 14.0323Z" fill="#007BFF"/>
<path d="M10 14.9511V11.2636" stroke="#007BFF" stroke-width="2" stroke-linecap="round" stroke-linejoin="round"/>
</svg>
