<svg width="20" height="20" viewBox="0 0 20 20" fill="none" xmlns="http://www.w3.org/2000/svg">
<g clip-path="url(#clip0_89_805)">
<path d="M10 19.375C15.1777 19.375 19.375 15.1777 19.375 10C19.375 4.82233 15.1777 0.625 10 0.625C4.82233 0.625 0.625 4.82233 0.625 10C0.625 15.1777 4.82233 19.375 10 19.375Z" fill="#E8F3FF"/>
<path d="M17.1406 16.0687C16.2605 17.1033 15.1661 17.9342 13.9332 18.5041C12.7003 19.0739 11.3582 19.369 10 19.369C8.64175 19.369 7.29972 19.0739 6.06679 18.5041C4.83386 17.9342 3.73948 17.1033 2.85938 16.0687C3.06055 14.3159 3.89941 12.6983 5.21619 11.524C6.53296 10.3497 8.23567 9.70078 10 9.70078C11.7643 9.70078 13.467 10.3497 14.7838 11.524C16.1006 12.6983 16.9395 14.3159 17.1406 16.0687V16.0687Z" fill="#8BC4FF"/>
<path d="M13.4376 7.1875C13.4376 10.4688 9.19075 11.9188 7.21888 9.20625C6.78667 8.62247 6.5563 7.91383 6.56263 7.1875C6.56263 6.27582 6.92479 5.40148 7.56945 4.75682C8.2141 4.11216 9.08845 3.75 10.0001 3.75C10.9118 3.75 11.7862 4.11216 12.4308 4.75682C13.0755 5.40148 13.4376 6.27582 13.4376 7.1875V7.1875Z" fill="#8BC4FF"/>
<path d="M9.99998 0C1.42811 0 -3.07502 10.0656 2.37811 16.4688C3.31688 17.5735 4.48463 18.4609 5.80044 19.0695C7.11626 19.6781 8.54867 19.9933 9.99842 19.9933C11.4482 19.9933 12.8806 19.6781 14.1964 19.0695C15.5122 18.4609 16.68 17.5735 17.6187 16.4688C23.125 9.97813 18.4875 0 9.99998 0ZM9.99998 1.25C16.825 1.25 21.0125 8.75 17.4594 14.5563C17.1294 13.4918 16.5756 12.5103 15.835 11.6775C15.0944 10.8448 14.1843 10.1801 13.1656 9.72813L13.2906 9.57188C13.7302 8.96548 13.9936 8.24936 14.0517 7.50264C14.1098 6.75593 13.9603 6.00769 13.6198 5.34059C13.2793 4.67349 12.761 4.11351 12.1222 3.72252C11.4834 3.33152 10.749 3.12473 9.99998 3.125C6.52498 3.125 4.74373 7.1875 6.83123 9.72813C5.81317 10.1805 4.90361 10.8453 4.16359 11.678C3.42357 12.5107 2.8702 13.4921 2.54061 14.5563C-1.01252 8.75 3.17186 1.25 9.99998 1.25ZM3.51561 15.8656C3.69774 14.6802 4.20214 13.5677 4.9737 12.6496C5.74526 11.7314 6.7543 11.0429 7.89061 10.6594C8.52497 11.0432 9.25228 11.2461 9.99373 11.2461C10.7352 11.2461 11.4625 11.0432 12.0969 10.6594C13.2335 11.0423 14.2429 11.7306 15.0146 12.6489C15.7862 13.5671 16.2904 14.68 16.4719 15.8656C15.6517 16.7689 14.6517 17.4907 13.5361 17.9847C12.4204 18.4786 11.2138 18.7338 9.99373 18.7338C8.77364 18.7338 7.56704 18.4786 6.45141 17.9847C5.33577 17.4907 4.33577 16.7689 3.51561 15.8656ZM7.18748 7.1875C7.18748 6.63124 7.35243 6.08747 7.66147 5.62496C7.97051 5.16245 8.40977 4.80196 8.92368 4.58909C9.4376 4.37622 10.0031 4.32052 10.5487 4.42904C11.0942 4.53756 11.5954 4.80543 11.9887 5.19876C12.3821 5.5921 12.6499 6.09324 12.7584 6.63881C12.867 7.18438 12.8113 7.74988 12.5984 8.2638C12.3855 8.77771 12.025 9.21697 11.5625 9.52601C11.1 9.83505 10.5562 10 9.99998 10C9.25406 10 8.53869 9.70368 8.01124 9.17624C7.4838 8.64879 7.18748 7.93342 7.18748 7.1875Z" fill="#007BFF"/>
</g>
<defs>
<clipPath id="clip0_89_805">
<rect width="20" height="20" fill="white"/>
</clipPath>
</defs>
</svg>
