<svg width="16" height="16" viewBox="0 0 16 16" fill="none" xmlns="http://www.w3.org/2000/svg">
<path d="M14.6935 12.8475C14.3715 11.4277 13.6126 10.1445 12.5235 9.17834C11.9805 9.89944 11.2773 10.4845 10.4695 10.8874C9.66164 11.2903 8.77126 11.5 7.86853 11.5C6.96581 11.5 6.07543 11.2903 5.26761 10.8874C4.45979 10.4845 3.75661 9.89944 3.21353 9.17834C2.1245 10.1445 1.36562 11.4277 1.04353 12.8475C0.985325 13.1059 0.985491 13.3741 1.04402 13.6324C1.10255 13.8907 1.21797 14.1328 1.38187 14.3408C1.54604 14.5468 1.75457 14.713 1.99192 14.8272C2.22928 14.9413 2.48933 15.0004 2.7527 15H12.9844C13.2477 15.0004 13.5078 14.9413 13.7451 14.8272C13.9825 14.713 14.191 14.5468 14.3552 14.3408C14.5191 14.1328 14.6345 13.8907 14.693 13.6324C14.7516 13.3741 14.7517 13.1059 14.6935 12.8475V12.8475Z" fill="#FF414C"/>
<path d="M7.86854 10.3333C10.4459 10.3333 12.5352 8.244 12.5352 5.66667C12.5352 3.08934 10.4459 1 7.86854 1C5.29121 1 3.20187 3.08934 3.20187 5.66667C3.20187 8.244 5.29121 10.3333 7.86854 10.3333Z" fill="#FF414C"/>
</svg>
