<svg width="20" height="20" viewBox="0 0 20 20" fill="none" xmlns="http://www.w3.org/2000/svg">
<path d="M10.4713 10.0293L15.8851 4.61551C16.0071 4.49348 16.0071 4.29562 15.8851 4.17359C15.763 4.05156 15.5652 4.05156 15.4431 4.17359L10.0293 9.58734L4.61554 4.17355C4.49351 4.05152 4.29565 4.05152 4.17362 4.17355C4.05155 4.29559 4.05155 4.49344 4.17362 4.61547L9.58737 10.0293L4.17358 15.4431C4.05151 15.5652 4.05151 15.763 4.17358 15.885C4.2346 15.9461 4.31456 15.9766 4.39456 15.9766C4.47456 15.9766 4.55452 15.9461 4.61554 15.885L10.0293 10.4712L15.4431 15.885C15.5042 15.9461 15.5841 15.9766 15.6641 15.9766C15.7441 15.9766 15.8241 15.9461 15.8851 15.885C16.0071 15.763 16.0071 15.5652 15.8851 15.4431L10.4713 10.0293Z" fill="black"/>
</svg>
