<svg width="60" height="60" viewBox="0 0 60 60" fill="none" xmlns="http://www.w3.org/2000/svg">
<rect width="60" height="60" rx="30" fill="#F0434D"/>
<path d="M24.75 26.5C24.7681 25.1133 25.3271 23.7884 26.3077 22.8077C27.2884 21.8271 28.6133 21.2681 30 21.25C31.3868 21.2681 32.7116 21.8271 33.6923 22.8077C34.6729 23.7884 35.2319 25.1133 35.25 26.5C35.2319 27.8868 34.6729 29.2116 33.6923 30.1923C32.7116 31.1729 31.3868 31.7319 30 31.75C28.6133 31.7319 27.2884 31.1729 26.3077 30.1923C25.3271 29.2116 24.7681 27.8868 24.75 26.5ZM30 42.25L37 44V38.61C34.8889 39.8813 32.464 40.536 30 40.5C27.536 40.536 25.1111 39.8813 23 38.61V44L30 42.25ZM30 16C28.6209 15.9748 27.2513 16.232 25.9753 16.7556C24.6993 17.2793 23.5438 18.0584 22.58 19.045C21.5827 20.0099 20.7946 21.1697 20.2647 22.4522C19.7349 23.7347 19.4746 25.1126 19.5 26.5C19.4818 27.8787 19.7456 29.2465 20.2752 30.5195C20.8049 31.7924 21.5892 32.9437 22.58 33.9025C23.5393 34.8986 24.6928 35.6874 25.969 36.2202C27.2452 36.753 28.6172 37.0184 30 37C31.3828 37.0184 32.7548 36.753 34.031 36.2202C35.3072 35.6874 36.4607 34.8986 37.42 33.9025C38.4108 32.9437 39.1951 31.7924 39.7248 30.5195C40.2544 29.2465 40.5182 27.8787 40.5 26.5C40.5254 25.1126 40.2651 23.7347 39.7353 22.4522C39.2054 21.1697 38.4173 20.0099 37.42 19.045C36.4562 18.0584 35.3007 17.2793 34.0247 16.7556C32.7487 16.232 31.3791 15.9748 30 16ZM44 26.5C43.9627 28.1798 43.6249 29.8393 43.0025 31.4C42.4418 32.988 41.5935 34.4592 40.5 35.74V49.25L30 45.75L19.5 49.25V35.74C17.235 33.1963 15.9886 29.906 16 26.5C15.9692 24.6635 16.3151 22.8402 17.0164 21.1426C17.7177 19.4451 18.7595 17.9092 20.0775 16.63C21.3615 15.3002 22.9044 14.2476 24.611 13.5373C26.3176 12.8269 28.1517 12.4739 30 12.5C31.8483 12.4739 33.6824 12.8269 35.389 13.5373C37.0956 14.2476 38.6385 15.3002 39.9225 16.63C41.2405 17.9092 42.2823 19.4451 42.9836 21.1426C43.6849 22.8402 44.0308 24.6635 44 26.5Z" fill="white"/>
</svg>
