<svg width="12" height="12" viewBox="0 0 12 12" fill="none" xmlns="http://www.w3.org/2000/svg">
<path d="M11.1919 6.41213L10.2585 9.684C10.1209 10.1644 9.6765 10.5 9.17737 10.5H4.125C3.91763 10.5 3.75 10.332 3.75 10.125V4.875C3.75 4.79437 3.77587 4.71563 3.82425 4.65112L5.84625 1.93613C6.0705 1.65525 6.39375 1.5 6.74025 1.5C7.36613 1.5 7.875 2.00888 7.875 2.63475V4.5H9.75075C10.2251 4.5 10.6609 4.71712 10.9462 5.09587C11.2328 5.47537 11.322 5.955 11.1919 6.41213Z" fill="#008D17"/>
<path d="M2.625 4.5H1.125C0.917625 4.5 0.75 4.668 0.75 4.875V10.125C0.75 10.332 0.917625 10.5 1.125 10.5H2.625C2.83238 10.5 3 10.332 3 10.125V4.875C3 4.668 2.83238 4.5 2.625 4.5ZM1.875 9.5625C1.5645 9.5625 1.3125 9.3105 1.3125 9C1.3125 8.6895 1.5645 8.4375 1.875 8.4375C2.1855 8.4375 2.4375 8.6895 2.4375 9C2.4375 9.3105 2.1855 9.5625 1.875 9.5625Z" fill="#008D17"/>
</svg>
