<svg width="12" height="12" viewBox="0 0 12 12" fill="none" xmlns="http://www.w3.org/2000/svg">
<path d="M11.6353 3.59034C11.6358 4.34888 11.3659 5.07908 10.8806 5.63209L6.16651 11.0007L1.45245 5.62234C0.969275 5.07178 0.699536 4.34551 0.697758 3.59034C0.697758 1.01621 3.49411 -0.30986 5.40088 1.22097L6.16651 1.83525L6.93213 1.22097C8.8462 -0.30986 11.6353 1.02206 11.6353 3.59034Z" fill="#FDFDFD"/>
<path d="M6.16667 11.3908C5.9388 11.3908 6.32526 11.7535 1.18646 5.88953C0.639907 5.26655 0.334967 4.44473 0.333332 3.59036C0.333332 0.690561 3.47604 -0.809066 5.61979 0.908972L6.16667 1.34774L6.71354 0.908972C8.85911 -0.809066 12 0.692511 12 3.59036C12.0001 4.44799 11.6951 5.27352 11.1469 5.89928C6.02083 11.7379 6.39271 11.3908 6.16667 11.3908ZM3.58359 0.963575C3.17944 0.951852 2.77884 1.04723 2.41748 1.24121C2.05612 1.4352 1.74521 1.72177 1.51244 2.07541C1.27967 2.42904 1.13226 2.83877 1.08333 3.26811C1.03441 3.69744 1.08549 4.13305 1.23203 4.53616C1.46719 5.16799 1.39062 4.98078 6.16667 10.4313C11.1141 4.78772 10.8698 5.15044 11.1013 4.53421C11.2435 4.14925 11.2975 3.73346 11.2588 3.32161C11.2202 2.90975 11.0899 2.51378 10.8789 2.16679C10.0786 0.860219 8.34323 0.577455 7.15104 1.533L6.38542 2.14729C5.82578 2.59581 5.31536 0.963575 3.58359 0.963575Z" fill="#FA000E"/>
</svg>
