<svg width="20" height="20" viewBox="0 0 20 20" fill="none" xmlns="http://www.w3.org/2000/svg">
<path d="M18.9655 8.27586H11.7241V1.03448C11.7241 0.0820689 10.9524 0 10 0C9.04759 0 8.27586 0.0820689 8.27586 1.03448V8.27586H1.03448C0.0820689 8.27586 0 9.04759 0 10C0 10.9524 0.0820689 11.7241 1.03448 11.7241H8.27586V18.9655C8.27586 19.9179 9.04759 20 10 20C10.9524 20 11.7241 19.9179 11.7241 18.9655V11.7241H18.9655C19.9179 11.7241 20 10.9524 20 10C20 9.04759 19.9179 8.27586 18.9655 8.27586Z" fill="#007BFF"/>
</svg>
