<svg width="60" height="60" viewBox="0 0 60 60" fill="none" xmlns="http://www.w3.org/2000/svg">
<rect width="60" height="60" rx="30" fill="#F0434D"/>
<path d="M18.8328 41.1694C18.4046 41.1694 18.1049 40.8896 18.1049 40.49C18.1049 40.1304 18.4046 39.8107 18.8328 39.8107H42.2105C42.5959 39.8107 42.9384 40.1304 42.9384 40.49C42.9384 40.8896 42.5959 41.1694 42.2105 41.1694H18.8328Z" fill="white"/>
<path fill-rule="evenodd" clip-rule="evenodd" d="M20.0742 27.8619H24.3558C25.0409 27.8619 25.5975 28.3814 25.5975 29.0208V35.2949C25.5975 35.9343 25.0409 36.4138 24.3558 36.4138H20.0742C19.3891 36.4138 18.8325 35.9343 18.8325 35.2949V29.0208C18.8325 28.3814 19.3891 27.8619 20.0742 27.8619ZM24.1417 29.2606H20.2883V35.0551H24.1417V29.2606Z" fill="white"/>
<path fill-rule="evenodd" clip-rule="evenodd" d="M28.338 19.51H32.6625C33.3476 19.51 33.9042 20.0295 33.9042 20.6689V35.295C33.9042 35.8944 33.3476 36.4139 32.6625 36.4139H28.338C27.6958 36.4139 27.1392 35.8944 27.1392 35.295V20.6689C27.1392 20.0295 27.6958 19.51 28.338 19.51ZM32.4484 20.8687H28.5949V35.0552H32.4484V20.8687Z" fill="white"/>
<path fill-rule="evenodd" clip-rule="evenodd" d="M36.6441 24.2654H40.9685C41.6536 24.2654 42.2102 24.7849 42.2102 25.4243V35.2949C42.2102 35.9343 41.6536 36.4138 40.9685 36.4138H36.6441C35.959 36.4138 35.4024 35.9343 35.4024 35.2949V25.4243C35.4024 24.7849 35.959 24.2654 36.6441 24.2654ZM40.7544 25.6241H36.901V35.0551H40.7544V25.6241Z" fill="white"/>
</svg>
