<svg width="61" height="60" viewBox="0 0 61 60" fill="none" xmlns="http://www.w3.org/2000/svg">
<rect x="0.5" width="60" height="60" rx="30" fill="#F0434D"/>
<path d="M22.25 44H20.6875L21.625 42.6875C22.3125 41.6875 22.8125 40.5 23.0625 38.9375C18.625 36.9375 16.25 33.1875 16.25 28.25C16.25 20.6875 21.9375 16 31.125 16C40.3125 16 46 20.6875 46 28.25C46 35.875 40.4375 40.5 31.125 40.5C30.9375 40.5 30.6875 40.5 30.5 40.5C29 42.125 26.5 44 22.25 44ZM31 17.625C22.6875 17.625 17.75 21.5625 17.75 28.25C17.75 33.9375 21.25 36.5 24.125 37.6875L24.6875 37.9375L24.625 38.5625C24.4375 40 24.125 41.25 23.625 42.3125C26.625 41.9375 28.375 40.4375 29.3125 39.1875L29.5625 38.875H30.125C30.375 38.875 30.6875 38.875 30.9375 38.875C42.875 38.875 44.1875 31.4375 44.1875 28.25C44.25 21.625 39.3125 17.625 31 17.625Z" fill="white"/>
</svg>
