<svg width="33" height="33" viewBox="0 0 33 33" fill="none" xmlns="http://www.w3.org/2000/svg">
<g clip-path="url(#clip0_49_725)">
<path d="M4.05537 27.5386L9.10072 22.4308C10.6878 23.4702 12.5843 24.0727 14.6189 24.0603C20.132 24.0269 24.5901 19.5137 24.5566 13.9998C24.5231 8.48591 20.0106 4.02723 14.4975 4.06071C8.98436 4.09419 4.52633 8.60735 4.55981 14.1212C4.57217 16.1562 5.19757 18.0454 6.256 19.62L1.21065 24.7278C0.434517 25.5125 0.442217 26.7805 1.22783 27.5557C2.01344 28.332 3.27924 28.3243 4.05537 27.5386ZM14.5157 7.06066C18.3751 7.03722 21.5336 10.1581 21.5571 14.018C21.5805 17.878 18.4601 21.037 14.6007 21.0604C10.7413 21.0838 7.58277 17.963 7.55933 14.103C7.53589 10.2431 10.6563 7.08409 14.5157 7.06066Z" fill="white"/>
</g>
<defs>
<clipPath id="clip0_49_725">
<rect width="32" height="31.9954" fill="white" transform="translate(32.4949) rotate(89.6521)"/>
</clipPath>
</defs>
</svg>
