<svg width="90" height="90" viewBox="0 0 90 90" fill="none" xmlns="http://www.w3.org/2000/svg">
<circle cx="45" cy="45" r="45" fill="#F5F5F5"/>
<path d="M32.8351 68.7954L19.1667 71.8334L22.2047 58.165C20.204 54.4227 19.1603 50.2436 19.1667 46.0001C19.1667 31.7323 30.7323 20.1667 45 20.1667C59.2678 20.1667 70.8333 31.7323 70.8333 46.0001C70.8333 60.2678 59.2678 71.8334 45 71.8334C40.7565 71.8398 36.5773 70.7961 32.8351 68.7954ZM33.5843 63.3368L35.2712 64.241C38.2641 65.8404 41.6065 66.6738 45 66.6668C49.0875 66.6668 53.0832 65.4547 56.4818 63.1838C59.8804 60.9129 62.5293 57.6852 64.0935 53.9089C65.6577 50.1325 66.067 45.9772 65.2696 41.9682C64.4721 37.9593 62.5038 34.2768 59.6135 31.3865C56.7233 28.4963 53.0408 26.5279 49.0319 25.7305C45.0229 24.9331 40.8676 25.3424 37.0912 26.9066C33.3149 28.4708 30.0872 31.1197 27.8163 34.5183C25.5454 37.9169 24.3333 41.9126 24.3333 46.0001C24.3333 49.4462 25.1729 52.7632 26.7617 55.7289L27.6632 57.4158L25.9712 65.0289L33.5843 63.3368ZM32.0833 46.0001H37.25C37.25 48.0555 38.0665 50.0268 39.5199 51.4802C40.9733 52.9336 42.9446 53.7501 45 53.7501C47.0554 53.7501 49.0267 52.9336 50.4801 51.4802C51.9335 50.0268 52.75 48.0555 52.75 46.0001H57.9167C57.9167 49.4258 56.5558 52.7112 54.1335 55.1335C51.7111 57.5559 48.4257 58.9168 45 58.9168C41.5743 58.9168 38.2889 57.5559 35.8665 55.1335C33.4442 52.7112 32.0833 49.4258 32.0833 46.0001Z" fill="#F0434D"/>
</svg>
