<svg width="22" height="22" viewBox="0 0 22 22" fill="none" xmlns="http://www.w3.org/2000/svg">
<path d="M10.7545 4.23197C11.7987 4.2069 12.8428 4.55783 13.4499 5.20328C13.541 5.29728 13.6199 5.39755 13.6928 5.50408C14.4516 6.60073 14.4212 7.92924 14.2755 9.09482C14.1359 10.2353 13.456 11.3195 12.946 12.3973C12.6729 12.9801 12.6911 13.425 13.2739 13.6945C13.8081 13.9389 14.403 14.0391 14.9555 14.2522C15.429 14.4402 15.9389 14.5718 16.4185 14.7661H16.4246C16.7949 14.9102 17.1409 15.0919 17.4323 15.3488C18.2883 16.1008 18.094 17.3729 18.1244 18.4445H12.7093H3.38464C3.415 17.3729 3.22074 16.1008 4.07671 15.3488C4.75056 14.7535 5.71581 14.5843 6.55357 14.2522C7.10601 14.0391 7.70094 13.9389 8.23516 13.6945C8.81796 13.425 8.83617 12.9801 8.56298 12.3973C8.05304 11.3194 7.37312 10.2353 7.23349 9.09482C7.08779 7.92924 7.05744 6.60073 7.81628 5.50408C7.88913 5.39755 7.96805 5.29728 8.05911 5.20328C8.66618 4.55783 9.71035 4.2069 10.7545 4.23197Z" fill="#007BFF"/>
<path d="M10.7545 4.23197C11.7987 4.2069 12.8428 4.55783 13.4499 5.20328C13.541 5.29728 13.6199 5.39755 13.6928 5.50408C14.4516 6.60073 14.4212 7.92924 14.2755 9.09482C14.1359 10.2353 13.456 11.3195 12.946 12.3973C12.6729 12.9801 12.6911 13.425 13.2739 13.6945C13.8081 13.9389 14.403 14.0391 14.9555 14.2522C15.429 14.4402 15.9389 14.5718 16.4185 14.7661H16.4246C16.7949 14.9102 17.1409 15.0919 17.4323 15.3488C18.2883 16.1008 18.094 17.3729 18.1244 18.4445H12.7093H3.38464C3.415 17.3729 3.22074 16.1008 4.07671 15.3488C4.75056 14.7535 5.71581 14.5843 6.55357 14.2522C7.10601 14.0391 7.70094 13.9389 8.23516 13.6945C8.81796 13.425 8.83617 12.9801 8.56298 12.3973C8.05304 11.3194 7.37312 10.2353 7.23349 9.09482C7.08779 7.92924 7.05744 6.60073 7.81628 5.50408C7.88913 5.39755 7.96805 5.29728 8.05911 5.20328C8.66618 4.55783 9.71035 4.2069 10.7545 4.23197Z" stroke="#303030" stroke-width="0.7" stroke-miterlimit="10" stroke-linecap="round" stroke-linejoin="round"/>
<path d="M9.26176 5.48926C9.26176 5.48926 8.06687 6.07512 8.22078 7.82527" stroke="#303030" stroke-width="0.7" stroke-miterlimit="10" stroke-linecap="round" stroke-linejoin="round"/>
<path d="M8.30042 8.78418L8.43312 9.33214" stroke="#303030" stroke-width="0.7" stroke-miterlimit="10" stroke-linecap="round" stroke-linejoin="round"/>
</svg>
