<svg width="54" height="53" viewBox="0 0 54 53" fill="none" xmlns="http://www.w3.org/2000/svg">
<path d="M33.615 19.8253C37.3709 19.8253 40.4156 16.837 40.4156 13.1506C40.4156 9.46431 37.3709 6.47595 33.615 6.47595C29.8591 6.47595 26.8144 9.46431 26.8144 13.1506C26.8144 16.837 29.8591 19.8253 33.615 19.8253Z" stroke="#007BFF" stroke-width="2" stroke-linecap="round" stroke-linejoin="round"/>
<path d="M25.6838 26.5001H27.7256C27.3456 24.9172 26.4324 23.5067 25.1339 22.4967C23.8353 21.4867 22.2275 20.9365 20.5706 20.9351H10.7494C8.79357 20.9351 6.91787 21.6976 5.5349 23.055C4.15194 24.4123 3.375 26.2533 3.375 28.1729C3.375 30.0925 4.15194 31.9334 5.5349 33.2908C6.91787 34.6481 8.79357 35.4107 10.7494 35.4107H16.605C16.605 33.0474 17.5615 30.781 19.2641 29.1099C20.9667 27.4389 23.2759 26.5001 25.6838 26.5001V26.5001Z" stroke="#007BFF" stroke-width="2" stroke-linecap="round" stroke-linejoin="round"/>
<path d="M15.66 16.1153C16.636 16.1186 17.591 15.8373 18.4039 15.3072C19.2168 14.777 19.851 14.0219 20.226 13.1375C20.6011 12.2531 20.7001 11.2794 20.5105 10.3397C20.3209 9.39999 19.8513 8.53674 19.1611 7.85938C18.471 7.18202 17.5914 6.72108 16.634 6.535C15.6766 6.34892 14.6845 6.44609 13.7834 6.81418C12.8823 7.18228 12.1129 7.80472 11.5728 8.60257C11.0326 9.40042 10.746 10.3377 10.7494 11.2957C10.7494 12.5739 11.2667 13.7998 12.1877 14.7037C13.1086 15.6076 14.3576 16.1153 15.66 16.1153V16.1153Z" stroke="#007BFF" stroke-width="2" stroke-linecap="round" stroke-linejoin="round"/>
<path d="M41.5463 26.5H25.6838C20.6697 26.5 16.605 30.4894 16.605 35.4106V37.63C16.605 42.5512 20.6697 46.5406 25.6838 46.5406H41.5463C46.5603 46.5406 50.625 42.5512 50.625 37.63V35.4106C50.625 30.4894 46.5603 26.5 41.5463 26.5Z" stroke="#007BFF" stroke-width="2" stroke-linecap="round" stroke-linejoin="round"/>
</svg>
