<svg width="60" height="60" viewBox="0 0 60 60" fill="none" xmlns="http://www.w3.org/2000/svg">
<rect width="60" height="60" rx="30" fill="#F0434D"/>
<path fill-rule="evenodd" clip-rule="evenodd" d="M43.9237 32.9433C44.5435 32.987 45.0073 33.4957 44.9607 34.0776L44.6756 37.6126C44.44 40.5292 41.8182 42.8131 38.7041 42.8131H21.2954C18.1813 42.8131 15.5595 40.5292 15.3239 37.6126L15.0388 34.0776C14.9922 33.4957 15.4575 32.987 16.0773 32.9433C16.7001 32.9222 17.2374 33.335 17.2854 33.9183L17.569 37.452C17.7161 39.2724 19.3519 40.6997 21.2954 40.6997H38.7041C40.6476 40.6997 42.2849 39.2724 42.4305 37.452L42.7156 33.9183C42.7636 33.335 43.3144 32.9208 43.9237 32.9433ZM31.936 15.0001C34.1916 15.0001 36.0602 16.587 36.3416 18.6338L39.2973 18.6351C42.4429 18.6351 45.0002 21.043 45.0002 24.0046V28.85C45.0002 29.2262 44.7871 29.5728 44.4434 29.7616C40.7391 31.7983 36.0466 32.9862 31.1251 33.1446L31.1256 35.6788C31.1256 36.2621 30.6214 36.7356 30.0001 36.7356C29.3787 36.7356 28.8745 36.2621 28.8745 35.6788L28.8735 33.145C23.957 32.988 19.2641 31.7998 15.557 29.7616C15.2118 29.5728 15.0002 29.2262 15.0002 28.85V23.9905C15.0002 21.0373 17.565 18.6351 20.7181 18.6351L23.6585 18.6338C23.9399 16.587 25.8085 15.0001 28.0641 15.0001H31.936ZM39.2973 20.7485H20.7181C18.8061 20.7485 17.2513 22.2026 17.2513 23.9905V28.2343C20.8137 30.0515 25.3047 31.0475 29.9792 31.0494L30.0001 31.0476L30.0167 31.0481L30.7313 31.0412C35.1522 30.9423 39.3695 29.9575 42.7491 28.2343V24.0046C42.7491 22.2082 41.2018 20.7485 39.2973 20.7485ZM31.936 17.1135H28.0641C27.0536 17.1135 26.2005 17.7592 25.9486 18.6342H34.0516C33.7996 17.7592 32.9465 17.1135 31.936 17.1135Z" fill="white"/>
</svg>
