<svg width="98" height="98" viewBox="0 0 98 98" fill="none" xmlns="http://www.w3.org/2000/svg">
<path d="M49 97.4375C75.7513 97.4375 97.4375 75.7513 97.4375 49C97.4375 22.2487 75.7513 0.5625 49 0.5625C22.2487 0.5625 0.5625 22.2487 0.5625 49C0.5625 75.7513 22.2487 97.4375 49 97.4375Z" fill="#DAECFF"/>
<path d="M69.1563 72.2812L49 63.6875L28.9219 72.2812C23.6094 74.5469 17.5157 78.4531 17.9063 86.1094C26.3438 93.1406 37.2032 97.4375 49 97.4375C60.875 97.4375 71.7344 93.1406 80.0938 86.1094C80.4844 78.4531 74.4688 74.5469 69.1563 72.2812Z" fill="white"/>
<path d="M69.4688 71.5L49.3906 62.9063C49.3125 62.9063 49.2344 62.8281 49.0781 62.8281C48.9219 62.8281 48.7656 62.8281 48.6094 62.9063L28.5313 71.5C20.7969 74.7813 17.0469 79.3906 17.0469 85.3281C17.5938 85.7969 18.1406 86.2656 18.7656 86.7344V86.1094C18.375 80.4063 21.7344 76.1875 29.2344 72.9844L49 64.625L68.8438 73.0625C76.2656 76.2656 79.5469 80.3281 79.3125 85.9531V86.7344C79.8594 86.2656 80.4844 85.7969 81.0313 85.3281C80.9531 79.3906 77.2031 74.8594 69.4688 71.5Z" fill="#502D4B"/>
<path d="M42.0469 59.9375L39.0781 68.1406L44.7812 84.9375C46.1875 89.0781 51.9688 89.0781 53.375 84.9375L59.0781 68.1406L56.0313 59.7812L42.0469 59.9375Z" fill="white"/>
<path d="M56.7344 59.4688C56.5781 59.1563 56.2656 58.9219 55.9531 58.9219L42.0469 59.0781C41.7344 59.0781 41.4219 59.3125 41.2656 59.625L38.2969 67.8281C38.2188 67.9844 38.2188 68.2188 38.2969 68.375L44 85.1719C44.7812 87.3594 46.7344 88.8438 49.0781 88.8438C51.4219 88.8438 53.4531 87.4375 54.1562 85.1719L59.8594 68.375C59.9375 68.2188 59.9375 67.9844 59.8594 67.8281L56.7344 59.4688ZM52.5156 84.7031C51.8906 86.5781 50.3281 87.2031 49 87.2031C47.6719 87.2031 46.1094 86.5781 45.4844 84.7031L39.8594 68.2188L42.5937 60.875L55.3281 60.7188L58.0625 68.2188L52.5156 84.7031Z" fill="#502D4B"/>
<path d="M51.7344 69.3125H46.2656L48.0625 72.0469L44.5469 85.6406L44.7031 86.0313C46.1094 90.0938 51.8906 90.0938 53.2969 86.0313L53.4531 85.6406L49.9375 72.0469L51.7344 69.3125Z" fill="#DD7262"/>
<path d="M50.7969 72.2031L52.3594 69.8594C52.5157 69.625 52.5157 69.2344 52.4376 69C52.2813 68.7656 52.0469 68.5312 51.7344 68.5312H46.2657C45.9532 68.5312 45.6407 68.6875 45.5626 69C45.4063 69.2344 45.4063 69.625 45.6407 69.8594L47.2813 72.2031L43.8438 85.0156C43.7657 85.1719 43.8438 85.3281 43.8438 85.4844L44.0001 85.875C44.7813 88.0625 46.7344 89.4688 49.0782 89.4688C51.4219 89.4688 53.3751 88.0625 54.1563 85.875L54.3126 85.4844C54.3907 85.3281 54.3907 85.1719 54.3126 85.0156L50.7969 72.2031ZM52.5157 85.4063C51.8907 87.2031 50.3282 87.9063 49.0001 87.9063C47.7501 87.9063 46.1094 87.2813 45.4844 85.4063L45.4063 85.25L48.8438 72.2813C48.9219 72.0469 48.8438 71.8125 48.7657 71.5781L47.8282 70.1719H50.0938L49.1563 71.5781C49.0001 71.8125 49.0001 72.0469 49.0782 72.2813L52.5157 85.25V85.4063Z" fill="#502D4B"/>
<path d="M34.8594 69.7031L35.7187 78.375L39 76.5781L37.125 80.0938L47.2812 91.1094L49 86.4219L39.625 65.5625L34.8594 69.7031Z" fill="white"/>
<path d="M40.4062 65.1719C40.3281 64.9375 40.0937 64.7813 39.8594 64.7031C39.625 64.625 39.3125 64.7031 39.1562 64.8594L34.3906 69.0781C34.1562 69.2344 34.0781 69.5469 34.0781 69.7813L34.9375 78.375C34.9375 78.6875 35.0937 78.9219 35.4062 79C35.6406 79.1563 35.9531 79.1563 36.1875 79L37.0469 78.5313L36.5 79.5469C36.3437 79.8594 36.3437 80.25 36.5781 80.4844L46.7344 91.5C46.8906 91.6563 47.125 91.7344 47.3594 91.7344C47.4375 91.7344 47.4375 91.7344 47.5156 91.7344C47.8281 91.6563 48.0625 91.5 48.1406 91.1875L49.8594 86.5C49.9375 86.2656 49.9375 86.0313 49.8594 85.875L40.4062 65.1719ZM46.9687 89.5469L38.1406 79.9375L39.7812 76.9688C39.9375 76.6563 39.9375 76.2656 39.625 75.9531C39.3906 75.7188 39 75.6406 38.6094 75.7969L36.3437 76.9688L35.7187 70.0938L39.3125 66.8906L48.0625 86.4219L46.9687 89.5469Z" fill="#502D4B"/>
<path d="M58.6093 21.0313C57.3593 21.0313 55.7968 17.9844 47.5937 17.9844C43.0624 17.9844 38.9218 19.8594 35.9531 22.9063C32.1249 26.8125 30.6406 32.5156 31.7343 37.9062L32.0468 39.3906C32.8281 39.3906 34.5468 39 37.5156 38.4531C43.9999 37.2813 50.0937 34.625 55.2499 30.5625L57.0468 29.1562L61.7343 36.5C62.8281 38.2969 63.9218 39.3906 65.9531 39.3906L66.3437 37.5156C66.8906 34.7031 66.8124 31.8125 65.8749 29.0781C64.3906 24.7813 61.4999 21.0313 58.6093 21.0313Z" fill="#A88265"/>
<path d="M58.6093 20.25C58.4531 20.25 58.0625 20.0156 57.75 19.7813C56.3437 18.8438 53.6875 17.2031 47.5156 17.2031C42.9062 17.2031 38.5312 19.0781 35.25 22.4375C31.2656 26.5 29.625 32.3594 30.7968 38.2188L31.1093 39.7031C31.1875 40.0937 31.5 40.4063 31.9687 40.4063C32.5937 40.4063 33.5312 40.25 35.0937 39.9375C35.7968 39.7813 36.6562 39.625 37.5937 39.4688C44.1562 38.2969 50.4062 35.4844 55.7187 31.4219L56.8125 30.5625L61.0312 37.125C62.0468 38.7656 63.2968 40.4063 65.9531 40.4063C66.3437 40.4063 66.7343 40.0937 66.8125 39.7031L67.2031 37.8281C67.8281 34.7813 67.6718 31.7344 66.7343 29C65.25 24.625 62.2031 20.25 58.6093 20.25ZM65.4843 37.4375L65.25 38.5312C64 38.2969 63.2968 37.5156 62.3593 36.1094L57.6718 28.7656C57.5156 28.5312 57.3593 28.4531 57.125 28.375C57.0468 28.375 57.0468 28.375 56.9687 28.375C56.8125 28.375 56.5781 28.4531 56.4218 28.5312L54.625 29.9375C49.5468 33.8437 43.6093 36.5 37.2812 37.6719C36.3437 37.8281 35.4843 37.9844 34.7812 38.1406C33.9218 38.2969 33.1406 38.4531 32.5937 38.5312L32.4375 37.75C31.4218 32.4375 32.9062 27.125 36.4218 23.5313C39.3906 20.4844 43.2968 18.8438 47.5156 18.8438C53.2187 18.8438 55.4843 20.3281 56.8125 21.1875C57.4375 21.5781 57.9062 21.8906 58.5312 21.8906C60.7968 21.8906 63.5312 25.0938 65.0156 29.4688C65.875 31.8906 66.0312 34.7031 65.4843 37.4375Z" fill="#502D4B"/>
<path d="M66.0312 39.0781L65.9531 39.4687C63.8437 39.4687 62.8281 38.375 61.7343 36.5781L57.0468 29.2344L55.25 30.6406C50.0937 34.625 44 37.3594 37.5156 38.5312C34.5468 39.0781 32.8281 39.4687 32.0468 39.4687L31.9687 39.1563C31.7343 39.3125 31.5 39.5469 31.1875 39.8594C30.5625 40.5625 31.0312 42.4375 31.5 43.9219C32.75 48.0625 33.6093 48.4531 34.7812 48.2188H34.8593C34.8593 48.2969 34.8593 48.375 34.9375 48.375L35.25 49.4687C37.125 55.5625 39 60.875 44 64.7812L44.0781 64.8594C44.9375 65.6406 46.0312 66.0313 47.125 66.0313H49H50.875C52.0468 66.0313 53.1406 65.6406 53.9218 64.8594L54 64.7812C59 60.875 60.875 55.4844 62.75 49.4687L63.0625 48.375C63.0625 48.2969 63.0625 48.2969 63.1406 48.2188H63.2187C64.3906 48.375 65.25 47.9844 66.5 43.9219C66.9687 42.3594 67.4375 40.5625 66.8125 39.8594C66.5 39.4687 66.2656 39.2344 66.0312 39.0781Z" fill="#F4C2A1"/>
<path d="M66.5 38.375C66.2657 38.2188 65.9532 38.2188 65.7188 38.2969C65.5625 38.375 65.4063 38.4531 65.3282 38.6094C64.0782 38.4531 63.2969 37.6719 62.4375 36.1875L57.75 28.8438C57.5938 28.6094 57.4375 28.5313 57.2032 28.4531C56.9688 28.375 56.7344 28.4531 56.5782 28.6094L54.7813 30.0156C49.7032 33.9219 43.7657 36.5781 37.4375 37.75C36.5 37.9063 35.6407 38.0625 34.9375 38.2188C34 38.375 33.2188 38.5313 32.6719 38.6094C32.5938 38.5313 32.4375 38.4531 32.3594 38.375C32.125 38.2969 31.8125 38.2969 31.5782 38.4531C31.2657 38.6875 30.9532 38.9219 30.6407 39.3125C29.9375 40.0938 30.0157 41.5781 30.7969 44.1563C31.8907 47.75 32.8282 49.0781 34.3907 49.0781L34.5469 49.7031C36.5782 56.1875 38.5313 61.5 43.6094 65.4844H43.6875C44.7032 66.3438 45.9532 66.8906 47.2813 66.8906H51.0313C52.3594 66.8906 53.6094 66.4219 54.625 65.4844H54.7032C59.7813 61.5 61.7344 56.1875 63.7657 49.7031L63.9219 49.0781C65.4844 49 66.4219 47.6719 67.5157 44.1563C68.2969 41.5781 68.375 40.0938 67.6719 39.3125C67.125 38.9219 66.8125 38.6094 66.5 38.375ZM65.7188 43.6875C64.5469 47.4375 63.9219 47.4375 63.6875 47.4375C63.6094 47.4375 63.5313 47.4375 63.5313 47.4375H63.4532C62.9844 47.2813 62.5157 47.5938 62.4375 48.0625L62.0469 49.3125C60.0938 55.4844 58.2969 60.5625 53.5313 64.2344L53.4532 64.3125C53.4532 64.3125 53.4532 64.3125 53.375 64.3906C52.6719 65.0156 51.8125 65.3281 50.875 65.3281H47.125C46.1875 65.3281 45.3282 65.0156 44.625 64.3906C44.625 64.3906 44.625 64.3906 44.5469 64.3125L44.4688 64.2344C39.7813 60.5625 37.9063 55.4844 35.9532 49.3125L35.5625 48.0625C35.4844 47.6719 35.0938 47.4375 34.7813 47.4375C34.7032 47.4375 34.625 47.4375 34.5469 47.4375H34.4688C34.3907 47.4375 34.3125 47.4375 34.3125 47.4375C34.0782 47.4375 33.375 47.4375 32.2813 43.6875C31.4219 40.9531 31.7344 40.4063 31.8125 40.4063L31.8907 40.3281H31.9688C32.5938 40.3281 33.5313 40.1719 35.0938 39.8594C35.7969 39.7031 36.6563 39.5469 37.5938 39.3906C44.1563 38.2188 50.4063 35.4063 55.7188 31.3438L56.8125 30.4844L61.0313 37.0469C62.0469 38.6875 63.2969 40.3281 65.9532 40.3281C66.0313 40.3281 66.0313 40.3281 66.1094 40.3281L66.1875 40.4063C66.2657 40.4063 66.5782 40.9531 65.7188 43.6875Z" fill="#502D4B"/>
<path d="M49.9375 71.1875H48.1406C47.6719 71.1875 47.2812 71.5781 47.2812 72.0469C47.2812 72.5156 47.6719 72.9062 48.1406 72.9062H49.9375C50.4062 72.9062 50.7969 72.5156 50.7969 72.0469C50.7969 71.5781 50.4062 71.1875 49.9375 71.1875Z" fill="#502D4B"/>
<path d="M30.0156 88.2188C29.5469 88.2188 29.2344 88.6094 29.2344 89.0781L29.3906 93.2969C29.9375 93.5312 30.5625 93.7656 31.1094 94L30.875 89C30.875 88.5312 30.4844 88.2188 30.0156 88.2188Z" fill="#502D4B"/>
<path d="M67.9844 88.2188C67.5156 88.2188 67.125 88.5312 67.125 89L66.8906 94C67.4375 93.7656 68.0625 93.5312 68.6094 93.2969L68.7656 89.0781C68.7656 88.6094 68.4531 88.2188 67.9844 88.2188Z" fill="#502D4B"/>
<path d="M62.125 69.7031L58.0625 65.5625L49 86.4219L45.25 94.4688L60.875 80.0938L59 76.5781L62.2812 78.375L62.125 69.7031Z" fill="white"/>
<path opacity="0.2" d="M69.1563 72.2813L62.0469 69.2344L57.9844 65.4844L56.8906 61.8906L54.8594 64L56.8125 68.2187L62.2813 72.9062C67.6719 75.1719 73.9219 78.4531 73.375 86.2656L73.2969 90.7969C75.7188 89.3906 77.9844 87.8281 80.0938 86.0313C80.4844 78.4531 74.4688 74.5469 69.1563 72.2813Z" fill="#502D4B"/>
<path d="M62.75 69.1563L58.6875 64.9375C58.5312 64.7031 58.2187 64.625 57.9062 64.7031C57.5937 64.7812 57.4375 64.9375 57.2812 65.1719L48.2187 86.0313L44.4688 94.0781C44.3125 94.4687 44.3906 94.8594 44.7031 95.0937C44.8594 95.1719 45.0156 95.25 45.1719 95.25C45.4062 95.25 45.5625 95.1719 45.7187 95.0156L61.3438 80.6406C61.6563 80.4063 61.7344 79.9375 61.5 79.625L60.9531 78.6094L61.8125 79.0781C62.0469 79.2344 62.3594 79.2344 62.6719 79.0781C62.9062 78.9219 63.0625 78.6094 63.0625 78.375L62.9063 69.7812C62.9844 69.4687 62.9062 69.3125 62.75 69.1563ZM59.3906 75.875C59.0781 75.7188 58.6875 75.7969 58.375 76.0312C58.1406 76.2656 58.0625 76.7344 58.2188 77.0469L59.8594 79.9375L47.8281 91.0313L49.7812 86.8125L58.2969 67.125L61.2656 70.1719L61.4219 77.0469L59.3906 75.875Z" fill="#502D4B"/>
<path d="M45.25 93.6094C44.7813 93.6094 44.3906 94 44.3906 94.4687V97.2813C44.9375 97.3594 45.4844 97.3594 46.0313 97.4375V94.5469C46.1094 94 45.7188 93.6094 45.25 93.6094Z" fill="#502D4B"/>
<path opacity="0.2" d="M66.0313 39.0781L66.3437 37.5938C66.8906 34.7813 66.8125 31.8906 65.875 29.1562C64.5469 25.25 62.125 21.8906 59.5469 21.1875C64.0781 34.1563 61.4219 51.5 54.8594 64.0781C59.2344 60.25 60.9531 55.1719 62.75 49.4687L63.0625 48.375C63.0625 48.2969 63.0625 48.2969 63.1406 48.2187H63.2187C64.3906 48.375 65.25 47.9844 66.5 43.9219C66.9688 42.3594 67.4375 40.5625 66.8125 39.8594C66.5 39.4687 66.2656 39.2344 66.0313 39.0781Z" fill="#502D4B"/>
</svg>
